<svg width="40" height="36" viewBox="0 0 40 36" fill="none" xmlns="http://www.w3.org/2000/svg">
<g filter="url(#filter0_b_42_2456)">
<rect width="40" height="36" rx="6" fill="#E1232E"/>
</g>
<path fill-rule="evenodd" clip-rule="evenodd" d="M11.1807 21.529H9.60329L6.30498 18.2417V21.529H5V14.4705H6.30498V17.6155L9.47422 14.4705H11.023L7.58128 17.8574L11.1807 21.529ZM21.5049 20.4047H24.8749L25.9934 21.5148H20.7305C20.1282 21.5148 19.6406 21.0309 19.6406 20.4332V15.552C19.6406 14.9543 20.1282 14.4705 20.7305 14.4705H25.6493C26.2516 14.4705 26.7391 14.9543 26.7391 15.552V20.7747L25.6206 19.6647V16.3205C25.6206 15.9078 25.2908 15.5805 24.8749 15.5805H21.5049C21.089 15.5805 20.7592 15.9078 20.7592 16.3205V19.6647C20.7592 20.0774 21.089 20.4047 21.5049 20.4047ZM33.868 17.9855H34.9865C34.9865 16.0501 33.4091 14.4705 31.4588 14.4705C30.5553 14.4705 29.6949 14.812 29.0352 15.4239C28.3182 16.0928 27.9167 17.0178 27.9167 17.9855H27.9023V20.4332C27.9023 21.0309 28.3899 21.5148 28.9922 21.5148H29.0209V17.9855C29.0209 17.7436 29.0639 17.5016 29.1356 17.2597C29.4511 16.2636 30.3832 15.5805 31.4444 15.5805C32.7781 15.5805 33.868 16.662 33.868 17.9855ZM24.5019 19.308V17.0879C24.5019 16.8602 24.3298 16.6895 24.0861 16.7037H22.2648C22.0497 16.7037 21.8633 16.8745 21.8633 17.1022V18.9095C21.8633 19.123 22.0354 19.308 22.2648 19.308H24.5019ZM34.9997 21.5142L33.4223 21.5284L33.0351 21.1441L32.1746 20.2903L30.9844 19.1091H32.5618L34.9997 21.5142ZM18.3514 14.4705H17.0751V17.4163H13.4327V14.4705H12.1564V21.529H13.4327V18.4693H17.0751V21.529H18.3514V14.4705Z" fill="white"/>
<defs>
<filter id="filter0_b_42_2456" x="-4" y="-4" width="48" height="44" filterUnits="userSpaceOnUse" color-interpolation-filters="sRGB">
<feFlood flood-opacity="0" result="BackgroundImageFix"/>
<feGaussianBlur in="BackgroundImageFix" stdDeviation="2"/>
<feComposite in2="SourceAlpha" operator="in" result="effect1_backgroundBlur_42_2456"/>
<feBlend mode="normal" in="SourceGraphic" in2="effect1_backgroundBlur_42_2456" result="shape"/>
</filter>
</defs>
</svg>
