<svg width="121" height="16" viewBox="0 0 121 16" fill="none" xmlns="http://www.w3.org/2000/svg">
<rect y="0.341797" width="26.8425" height="15.6581" rx="2" fill="#1B5BA6"/>
<path fill-rule="evenodd" clip-rule="evenodd" d="M18.537 4.57031L18.2228 6.08644C17.8141 5.90258 17.3977 5.78202 16.9592 5.75494C16.635 5.73489 16.3123 5.73868 16.015 5.89874C15.9338 5.94247 15.8562 6.00314 15.7936 6.07213C15.6215 6.26181 15.6114 6.52019 15.7981 6.69275C15.9735 6.8548 16.178 6.9864 16.3802 7.11356C16.5201 7.20156 16.6635 7.28387 16.8069 7.36617L16.8069 7.36618C16.9779 7.46433 17.1488 7.56246 17.3139 7.67023C18.6907 8.56885 18.2754 10.2811 17.4486 10.9721C16.9595 11.3809 16.3965 11.5943 15.7861 11.6792C14.8973 11.8027 14.0249 11.7107 13.1757 11.4065C13.1467 11.3961 13.1185 11.3835 13.0877 11.3698C13.0723 11.3629 13.0562 11.3557 13.0391 11.3483L13.3663 9.76646L13.4354 9.79895C13.4821 9.82093 13.5265 9.8418 13.5707 9.86309C14.1587 10.146 14.7752 10.2713 15.4228 10.21C15.6578 10.1877 15.8825 10.1227 16.075 9.97235C16.3804 9.73377 16.4134 9.34462 16.1209 9.09168C15.9774 8.9676 15.8135 8.86848 15.6498 8.76943C15.5834 8.72927 15.517 8.68912 15.452 8.64733C15.3443 8.57804 15.2339 8.51223 15.1236 8.44642L15.1235 8.44641C14.8937 8.30934 14.6639 8.17231 14.458 8.00398C13.4162 7.15219 13.7385 5.83631 14.356 5.17929C14.829 4.676 15.4214 4.4253 16.075 4.30866C16.8893 4.16335 17.685 4.25463 18.463 4.53357C18.4771 4.53861 18.4905 4.54578 18.5071 4.55468C18.5159 4.55942 18.5257 4.56465 18.537 4.57031ZM2.18444 4.53842L2.17773 4.57295C2.19777 4.57828 2.21667 4.58297 2.23475 4.58745C2.27119 4.59649 2.30428 4.6047 2.33647 4.61568C2.46849 4.66074 2.60063 4.70548 2.73277 4.75023L2.73278 4.75023L2.73278 4.75023C3.10134 4.87503 3.46992 4.99983 3.83615 5.13165C4.16072 5.24846 4.31729 5.50502 4.40098 5.84632C4.68211 6.99282 4.96841 8.13797 5.25471 9.28313L5.25472 9.28317L5.25473 9.28321L5.25482 9.28357C5.43798 10.0162 5.62114 10.7488 5.80294 11.4817C5.83062 11.5934 5.87732 11.6227 5.9843 11.6216C6.53151 11.6161 7.07881 11.6169 7.62602 11.6217C7.72566 11.6226 7.77324 11.5883 7.81172 11.493C8.50552 9.7739 9.20132 8.0557 9.89713 6.33748L10.5244 4.78842C10.5604 4.69958 10.5951 4.61017 10.6305 4.51874L10.6306 4.51865C10.6476 4.4747 10.6649 4.43029 10.6825 4.38525C10.6698 4.38349 10.6592 4.38177 10.6501 4.38027C10.6339 4.37762 10.6222 4.3757 10.6105 4.37567C10.4501 4.37538 10.2897 4.37529 10.1292 4.3752C9.71431 4.37495 9.29941 4.37471 8.88453 4.3711C8.79921 4.37037 8.77325 4.41431 8.74749 4.48183C8.24859 5.78932 7.74868 7.09639 7.24877 8.40346L7.19877 8.53418C7.13784 8.69351 7.07661 8.8527 7.01097 9.02332L6.90717 9.29326C6.89941 9.25979 6.89268 9.23199 6.88683 9.2078L6.88679 9.20763L6.88677 9.20757L6.88677 9.20755L6.88676 9.20753C6.87637 9.16462 6.86873 9.13303 6.86289 9.10108C6.78657 8.68306 6.71052 8.26499 6.63448 7.84692C6.46903 6.93729 6.30358 6.02765 6.13523 5.11858C6.04516 4.63206 5.73507 4.37382 5.2604 4.37317C4.37531 4.37202 3.49018 4.37219 2.60505 4.37236H2.60504H2.60504L2.38376 4.3724C2.34546 4.3724 2.30717 4.3747 2.27253 4.37678H2.27253H2.27252L2.27252 4.37678L2.27251 4.37678C2.25741 4.37769 2.243 4.37855 2.22958 4.37917C2.22429 4.38584 2.22039 4.39033 2.21758 4.39357C2.21348 4.39829 2.21166 4.40038 2.21117 4.40275C2.20256 4.44507 2.19433 4.48751 2.18444 4.53842ZM24.4142 11.6098L24.605 11.6098C24.6026 11.5945 24.6005 11.5805 24.5986 11.5676C24.5974 11.5592 24.5962 11.5513 24.5951 11.5438L24.5951 11.5437L24.5951 11.5436C24.5901 11.5093 24.5862 11.4822 24.5808 11.4555L24.4944 11.0255C24.3696 10.4037 24.2447 9.78197 24.1188 9.16047C24.0354 8.7492 23.9519 8.33796 23.8684 7.92672L23.8676 7.92251L23.8669 7.91934C23.6355 6.77985 23.4042 5.64033 23.1762 4.50013C23.156 4.39918 23.1173 4.37836 23.0296 4.37892C22.7338 4.38088 22.438 4.38047 22.1422 4.38007C22.003 4.37987 21.8638 4.37968 21.7245 4.37974C21.2102 4.37995 20.9893 4.53445 20.7916 5.02326C20.2416 6.38295 19.6909 7.7424 19.1403 9.10184L18.4992 10.6849L18.123 11.6143L18.4682 11.6144C18.966 11.6147 19.4525 11.6149 19.9388 11.61C19.9768 11.6096 20.033 11.5547 20.0488 11.5125C20.1547 11.229 20.2544 10.943 20.3503 10.6558C20.3797 10.5677 20.4167 10.525 20.517 10.5257C21.214 10.5305 21.911 10.5294 22.608 10.526C22.6998 10.5256 22.7392 10.5538 22.7562 10.6507C22.7833 10.8052 22.8146 10.9589 22.8458 11.1126C22.8712 11.2373 22.8965 11.3621 22.9197 11.4872C22.9368 11.5801 22.9772 11.6145 23.0698 11.6129C23.2997 11.6091 23.5296 11.6094 23.7595 11.6097C23.843 11.6098 23.9265 11.61 24.01 11.6099L24.4142 11.6098ZM21.8897 6.3748L22.4288 9.05137H20.9141L21.853 6.37109L21.8897 6.3748ZM11.7873 11.6097L13.2797 4.38672H11.4742L9.97852 11.6097H11.7873Z" fill="white"/>
<rect x="31.3162" y="0.341797" width="26.8425" height="15.6581" rx="2" fill="black"/>
<path fill-rule="evenodd" clip-rule="evenodd" d="M41.4685 12.5608H47.0438V3.625H41.4685V12.5608Z" fill="#FF5F00"/>
<path fill-rule="evenodd" clip-rule="evenodd" d="M42.042 8.09237C42.0406 6.34893 42.8563 4.70178 44.2538 3.62526C41.7393 1.68609 38.0988 2.11433 36.1225 4.58182C34.1464 7.04946 34.5828 10.6219 37.0975 12.5611C39.1974 14.1806 42.1538 14.1806 44.2538 12.5611C42.8558 11.4844 42.0401 9.83628 42.042 8.09237" fill="#EB001B"/>
<path fill-rule="evenodd" clip-rule="evenodd" d="M53.7584 14.4333V13.2285H53.6198L53.4576 14.0891L53.2954 13.2285H53.156V14.4333H53.2564V13.5211L53.4074 14.3042H53.5113L53.6619 13.5211V14.4333H53.7584ZM52.9018 14.4333V13.435H53.1549V13.2285H52.5525V13.435H52.7909V14.4333H52.9018Z" fill="#F79E1B"/>
<path fill-rule="evenodd" clip-rule="evenodd" d="M53.6235 8.09239C53.6234 11.2307 51.0307 13.7749 47.8326 13.7749C46.5344 13.7748 45.2741 13.3469 44.2537 12.5595C46.7682 10.6202 47.2047 7.04791 45.2285 4.58027C44.9434 4.22448 44.6162 3.90326 44.2537 3.62371C46.7678 1.68406 50.4083 2.11168 52.3851 4.57885C53.1873 5.58024 53.6234 6.81698 53.6235 8.09082V8.09239Z" fill="#F79E1B"/>
<rect x="62.6328" y="0.341797" width="26.8425" height="15.6581" fill="white"/>
<path d="M68.3496 0.341797H74.2119C75.0303 0.341797 75.5392 1.05267 75.3483 1.92771L72.619 14.4165C72.4264 15.2884 71.6071 15.9999 70.7882 15.9999H64.9264C64.1093 15.9999 63.5991 15.2884 63.79 14.4165L66.5205 1.92771C66.7114 1.05267 67.5303 0.341797 68.3496 0.341797Z" fill="#E21836"/>
<path d="M73.7243 0.341553H80.4658C81.2839 0.341553 80.915 1.05243 80.7225 1.92747L77.9936 14.4162C77.8022 15.2882 77.8619 15.9997 77.042 15.9997H70.3005C69.4806 15.9997 68.9732 15.2882 69.1658 14.4162L71.8946 1.92747C72.0883 1.05243 72.9055 0.341553 73.7243 0.341553Z" fill="#00447C"/>
<path d="M80.1986 0.341553H86.0609C86.8804 0.341553 87.3893 1.05243 87.1969 1.92747L84.468 14.4162C84.2754 15.2882 83.4555 15.9997 82.6361 15.9997H76.7766C75.9567 15.9997 75.4481 15.2882 75.6402 14.4162L78.3695 1.92747C78.5604 1.05243 79.3787 0.341553 80.1986 0.341553Z" fill="#007B84"/>
<path d="M69.8805 4.34432C69.2776 4.35086 69.0996 4.34432 69.0427 4.33C69.0208 4.44071 68.614 6.4407 68.6129 6.44237C68.5253 6.847 68.4616 7.13543 68.2451 7.32168C68.1222 7.42995 67.9787 7.48219 67.8124 7.48219C67.5451 7.48219 67.3893 7.34071 67.3632 7.07238L67.3582 6.98025C67.3582 6.98025 67.4396 6.43826 67.4396 6.43522C67.4396 6.43522 67.8666 4.61265 67.943 4.37173C67.947 4.35802 67.9482 4.35086 67.9492 4.34432C67.1181 4.35208 66.9708 4.34432 66.9607 4.33C66.9551 4.34965 66.9345 4.46264 66.9345 4.46264L66.4986 6.51684L66.4611 6.69106L66.3887 7.26091C66.3887 7.42995 66.4198 7.56792 66.4818 7.68458C66.6805 8.05448 67.247 8.10991 67.5675 8.10991C67.9805 8.10991 68.3678 8.01641 68.6296 7.8457C69.084 7.55955 69.2029 7.11228 69.3089 6.71481L69.358 6.5109C69.358 6.5109 69.7979 4.61798 69.8726 4.37173C69.8754 4.35802 69.8766 4.35086 69.8805 4.34432ZM71.3769 5.87136C71.2709 5.87136 71.0771 5.89877 70.9031 5.98968C70.8399 6.02425 70.7802 6.06415 70.7172 6.1039L70.774 5.88506L70.7429 5.84821C70.3738 5.92786 70.2912 5.93852 69.9503 5.98968L69.9217 6.00994C69.8821 6.35974 69.847 6.62274 69.7002 7.31032C69.6444 7.56372 69.5863 7.81956 69.5282 8.07236L69.5439 8.10449C69.8933 8.08485 69.9993 8.08485 70.3029 8.09018L70.3275 8.0617C70.3661 7.85109 70.3711 7.80175 70.4565 7.37519C70.4967 7.17295 70.5804 6.72858 70.6217 6.57035C70.6976 6.53289 70.7725 6.49604 70.8439 6.49604C71.0141 6.49604 70.9934 6.65426 70.9868 6.71731C70.9795 6.82315 70.9175 7.16884 70.8539 7.46565L70.8115 7.65723C70.7819 7.7987 70.7495 7.93622 70.7199 8.07647L70.7327 8.10449C71.0771 8.08485 71.1821 8.08485 71.4762 8.09018L71.5108 8.0617C71.5639 7.73276 71.5795 7.64474 71.6738 7.1658L71.7212 6.94574C71.8134 6.51507 71.8597 6.2967 71.79 6.11882C71.7162 5.91948 71.5393 5.87136 71.3769 5.87136ZM73.0486 6.32226C72.8655 6.35973 72.7488 6.3847 72.6328 6.40084C72.5177 6.42049 72.4056 6.43831 72.2287 6.4645L72.2147 6.47805L72.2018 6.48887C72.1834 6.62927 72.1705 6.75065 72.1461 6.89334C72.1254 7.04091 72.0935 7.20857 72.0416 7.44949C72.0015 7.63391 71.9808 7.69818 71.9579 7.76305C71.9356 7.82792 71.911 7.89097 71.8659 8.07234L71.8765 8.0891L71.8853 8.10448C72.0506 8.0961 72.1588 8.09016 72.27 8.0891C72.381 8.08483 72.496 8.0891 72.6741 8.09016L72.6896 8.07661L72.7064 8.06168C72.7321 7.89813 72.7359 7.85412 72.7516 7.77432C72.7672 7.68873 72.7941 7.57025 72.86 7.2538C72.8911 7.10517 72.9258 6.957 72.9581 6.80532C72.9917 6.65425 73.0269 6.50546 73.0603 6.35683L73.0553 6.33886L73.0486 6.32226ZM73.0525 5.7143C72.8861 5.60968 72.5942 5.64288 72.3978 5.7874C72.2019 5.92903 72.1796 6.13005 72.3453 6.23604C72.5088 6.33777 72.8018 6.30746 72.9966 6.16172C73.1921 6.01705 73.2165 5.81786 73.0525 5.7143ZM74.0583 8.13726C74.3948 8.13726 74.7398 8.03843 74.9994 7.74513C75.1992 7.50725 75.2908 7.15334 75.3225 7.0076C75.4258 6.52455 75.3453 6.29901 75.2443 6.16165C75.0909 5.95225 74.8197 5.88509 74.5383 5.88509C74.3691 5.88509 73.9662 5.90291 73.6514 6.21221C73.4253 6.43531 73.3209 6.73805 73.2579 7.02831C73.1943 7.32405 73.1211 7.85645 73.5805 8.05457C73.7223 8.11945 73.9266 8.13726 74.0583 8.13726ZM74.032 7.05039C74.1096 6.6846 74.2012 6.37759 74.435 6.37759C74.6182 6.37759 74.6315 6.60602 74.55 6.97303C74.5354 7.0545 74.4686 7.3574 74.3781 7.48639C74.315 7.58157 74.2402 7.63929 74.1576 7.63929C74.1331 7.63929 73.9869 7.63929 73.9846 7.40796C73.9835 7.29375 74.0053 7.1771 74.032 7.05039ZM76.1637 8.09022L76.19 8.06175C76.2273 7.85113 76.2334 7.80164 76.316 7.37524C76.3573 7.173 76.4427 6.72863 76.4829 6.5704C76.5589 6.53279 76.6325 6.49593 76.7062 6.49593C76.8753 6.49593 76.8547 6.65416 76.848 6.7172C76.8418 6.8232 76.7798 7.16874 76.7151 7.46554L76.6749 7.65712C76.6442 7.79875 76.6108 7.93611 76.5812 8.07652L76.594 8.10454C76.9396 8.08489 77.0406 8.08489 77.3364 8.09022L77.3721 8.06175C77.4239 7.73265 77.4379 7.64463 77.5351 7.16584L77.5814 6.94563C77.674 6.51497 77.7209 6.29674 77.6523 6.11887C77.5764 5.91953 77.3984 5.8714 77.2382 5.8714C77.132 5.8714 76.9373 5.89866 76.7642 5.98973C76.7024 6.0243 76.6403 6.06405 76.5795 6.10395L76.6325 5.88511L76.604 5.8481C76.2351 5.9279 76.1508 5.93856 75.8103 5.98973L75.7842 6.00998C75.7429 6.35979 75.7093 6.62263 75.5625 7.31036C75.5067 7.56377 75.4486 7.81961 75.3906 8.07241L75.4062 8.10454C75.7561 8.08489 75.8606 8.08489 76.1637 8.09022ZM78.7022 8.10446C78.7239 7.99147 78.8529 7.32171 78.8541 7.32171C78.8541 7.32171 78.9639 6.83028 78.9706 6.81246C78.9706 6.81246 79.0052 6.76129 79.0398 6.74104H79.0907C79.5706 6.74104 80.1126 6.74104 80.5374 6.40799C80.8265 6.17956 81.0241 5.84224 81.1123 5.43228C81.1351 5.33178 81.152 5.21223 81.152 5.09268C81.152 4.93568 81.1224 4.78034 81.037 4.65897C80.8203 4.33597 80.389 4.33003 79.891 4.3276C79.8894 4.3276 79.6455 4.33003 79.6455 4.33003C79.0081 4.33841 78.7525 4.33597 78.6474 4.32227C78.6386 4.37176 78.6219 4.45978 78.6219 4.45978C78.6219 4.45978 78.3935 5.58762 78.3935 5.58944C78.3935 5.58944 77.8471 7.98735 77.8214 8.10035C78.3779 8.09319 78.6061 8.09319 78.7022 8.10446ZM79.1253 6.10098C79.1253 6.10098 79.368 4.97542 79.3669 4.97969L79.3747 4.92197L79.3782 4.87796L79.4752 4.88862C79.4752 4.88862 79.9759 4.93446 79.9876 4.93568C80.1852 5.01715 80.2667 5.22715 80.2098 5.50127C80.1579 5.75178 80.0055 5.96239 79.8095 6.06412C79.6482 6.15032 79.4506 6.15747 79.247 6.15747H79.1153L79.1253 6.10098ZM80.6368 7.07124C80.5726 7.36272 80.4989 7.89511 80.956 8.08486C81.1018 8.15095 81.2324 8.1706 81.3651 8.16344C81.5053 8.15537 81.6352 8.08045 81.7555 7.97263C81.7446 8.01694 81.7338 8.06126 81.7229 8.10573L81.7436 8.1342C82.0724 8.11943 82.1744 8.11943 82.5306 8.12233L82.5629 8.09613C82.6149 7.77024 82.664 7.45379 82.7991 6.83032C82.865 6.53169 82.9307 6.23595 82.9983 5.93853L82.9877 5.90579C82.6199 5.97843 82.5216 5.99396 82.1678 6.04742L82.141 6.07072C82.1374 6.10102 82.1337 6.13011 82.1303 6.1592C82.0753 6.06447 81.9955 5.98361 81.8725 5.9332C81.7152 5.86726 81.3457 5.95224 81.028 6.26047C80.8048 6.48052 80.6977 6.78205 80.6368 7.07124ZM81.4092 7.08906C81.488 6.72981 81.5784 6.42585 81.8128 6.42585C81.9609 6.42585 82.039 6.57159 82.0231 6.82012C82.0105 6.8821 81.997 6.94743 81.9808 7.02129C81.9574 7.12804 81.9319 7.23388 81.9072 7.33987C81.8821 7.41236 81.8528 7.48074 81.8206 7.52627C81.7603 7.61734 81.6169 7.67384 81.5343 7.67384C81.5108 7.67384 81.3662 7.67384 81.3612 7.44663C81.3601 7.33348 81.382 7.21698 81.4092 7.08906ZM85.4431 5.90288L85.4146 5.86831C85.0507 5.94689 84.9848 5.95938 84.6505 6.0075L84.6259 6.0337C84.6248 6.03796 84.6238 6.04451 84.622 6.05045L84.6209 6.04451C84.372 6.65655 84.3793 6.52452 84.1767 7.00635C84.1755 6.98442 84.1755 6.97072 84.1744 6.94742L84.1236 5.90288L84.0918 5.86831C83.7105 5.94689 83.7015 5.95938 83.3495 6.0075L83.322 6.0337C83.3182 6.04618 83.3182 6.05989 83.3159 6.07481L83.3182 6.08014C83.3622 6.31984 83.3516 6.26639 83.3958 6.64467C83.4163 6.83031 83.4438 7.01701 83.4643 7.20036C83.4991 7.50722 83.5185 7.65829 83.5609 8.12657C83.3232 8.54475 83.2669 8.70298 83.038 9.06999L83.0395 9.07365L82.8784 9.34533C82.8599 9.37396 82.8432 9.3936 82.8198 9.40198C82.7941 9.41553 82.7606 9.41797 82.7142 9.41797H82.6249L82.4921 9.88853L82.9475 9.89691C83.2149 9.89569 83.3829 9.76244 83.4734 9.58335L83.7597 9.0604H83.7551L83.7853 9.02354C83.9779 8.58161 85.4431 5.90288 85.4431 5.90288ZM80.6368 12.0831H80.4436L81.1586 9.56256H81.3958L81.4711 9.30291L81.4784 9.59165C81.4695 9.77013 81.6013 9.92836 81.9474 9.90216H82.3476L82.4853 9.41682H82.3347C82.2481 9.41682 82.208 9.39352 82.213 9.34357L82.2057 9.04981H81.4645V9.05134C81.2249 9.05667 80.5093 9.07585 80.3644 9.11697C80.1891 9.16509 80.0044 9.30672 80.0044 9.30672L80.0769 9.04677H79.3836L79.2392 9.56256L78.5146 12.1216H78.374L78.2361 12.6034H79.617L79.5707 12.7641H80.2511L80.2963 12.6034H80.4872L80.6368 12.0831ZM80.0702 10.0747C79.9592 10.1074 79.7526 10.2067 79.7526 10.2067L79.9363 9.56256H80.4872L80.3543 10.0319C80.3543 10.0319 80.1841 10.0426 80.0702 10.0747ZM80.0808 10.995C80.0808 10.995 79.9078 11.0181 79.7939 11.0455C79.6817 11.0818 79.4714 11.196 79.4714 11.196L79.6611 10.5256H80.2148L80.0808 10.995ZM79.7722 12.089H79.2196L79.3798 11.5233H79.9306L79.7722 12.089ZM81.1028 10.5256H81.8993L81.7848 10.9207H80.9778L80.8566 11.3525H81.5628L81.0281 12.1549C80.9907 12.2139 80.9571 12.2347 80.9198 12.2513C80.8823 12.2716 80.8332 12.2953 80.7763 12.2953H80.5804L80.4458 12.7684H80.9582C81.2246 12.7684 81.3819 12.6392 81.4981 12.4697L81.8647 11.9349L81.9434 12.4779C81.9602 12.5797 82.0287 12.6392 82.0752 12.6624C82.1265 12.6898 82.1795 12.7368 82.2544 12.7438C82.3347 12.7475 82.3927 12.7504 82.4313 12.7504H82.683L82.8342 12.221H82.7349C82.6779 12.221 82.5797 12.2108 82.563 12.1918C82.5463 12.1686 82.5463 12.133 82.5373 12.0788L82.4574 11.5345H82.1303L82.2738 11.3525H83.0793L83.2031 10.9207H82.4574L82.5736 10.5256H83.317L83.4549 10.0385H81.2384L81.1028 10.5256ZM74.3759 12.199L74.5618 11.5399H75.3258L75.4654 11.0497H74.7007L74.8174 10.644H75.5647L75.7032 10.1693H73.8333L73.6977 10.644H74.1225L74.0092 11.0497H73.5833L73.4421 11.5483H73.8668L73.619 12.4203C73.5855 12.5357 73.6347 12.5797 73.6659 12.6333C73.6977 12.6856 73.73 12.7201 73.8026 12.7398C73.8775 12.7576 73.9288 12.7682 73.9985 12.7682H74.8598L75.0133 12.2252L74.6315 12.2811C74.5578 12.2811 74.3536 12.2716 74.3759 12.199ZM74.4635 9.0438L74.2699 9.41675C74.2284 9.49822 74.1912 9.54878 74.1576 9.57208C74.128 9.59173 74.0694 9.59995 73.9845 9.59995H73.8835L73.7485 10.0771H74.084C74.2453 10.0771 74.3692 10.014 74.4284 9.98249C74.4919 9.94625 74.5087 9.96696 74.5578 9.9164L74.6711 9.81178H75.7188L75.8578 9.31502H75.0909L75.2248 9.0438H74.4635ZM76.0102 12.2086C75.9923 12.1812 76.0052 12.1329 76.0325 12.0324L76.3188 11.0223H77.3375C77.4859 11.02 77.5931 11.0182 77.6628 11.0128C77.7377 11.0044 77.8192 10.976 77.9079 10.9248C77.9995 10.8712 78.0464 10.8147 78.0859 10.7498C78.1301 10.6851 78.201 10.5435 78.2618 10.3251L78.6218 9.0468L77.5647 9.05335C77.5647 9.05335 77.2392 9.10451 77.0959 9.16101C76.9513 9.22406 76.7446 9.4001 76.7446 9.4001L76.8401 9.04969H76.1871L75.2729 12.2811C75.2404 12.4065 75.2187 12.4976 75.2137 12.5523C75.212 12.6112 75.2835 12.6696 75.3298 12.7136C75.3845 12.7576 75.4654 12.7504 75.5429 12.7576C75.6245 12.7641 75.7406 12.7682 75.9007 12.7682H76.4026L76.5566 12.2139L76.1074 12.2591C76.0593 12.2591 76.0246 12.2317 76.0102 12.2086ZM76.5036 10.34H77.5735L77.5055 10.5672C77.4959 10.5726 77.4731 10.556 77.3642 10.5697H76.4377L76.5036 10.34ZM76.7179 9.57797H77.7969L77.7193 9.85163C77.7193 9.85163 77.2107 9.8463 77.1293 9.86229C76.7709 9.92839 76.5616 10.1325 76.5616 10.1325L76.7179 9.57797ZM77.5295 11.3281C77.5206 11.3621 77.5066 11.3828 77.487 11.3983C77.4653 11.4132 77.4302 11.4186 77.3777 11.4186H77.2253L77.2343 11.1419H76.6001L76.5744 12.4946C76.5734 12.5922 76.5823 12.6487 76.6493 12.694C76.7163 12.7505 76.9228 12.7576 77.2007 12.7576H77.5981L77.7415 12.2513L77.3956 12.2715L77.2806 12.2787C77.2648 12.2715 77.2498 12.265 77.2331 12.2472C77.2185 12.2318 77.194 12.2412 77.198 12.1436L77.2007 11.7968L77.5635 11.7808C77.7594 11.7808 77.8431 11.7129 77.9146 11.6482C77.9827 11.5862 78.005 11.515 78.0307 11.4186L78.0916 11.1115H77.5931L77.5295 11.3281Z" fill="#FEFEFE"/>
<rect x="93.9492" y="0.492188" width="26.8425" height="15.4628" fill="white"/>
<path d="M112.195 9.8492H113.729C113.773 9.8492 113.875 9.83486 113.919 9.83486C114.211 9.7775 114.459 9.5194 114.459 9.16093C114.459 8.81679 114.211 8.55869 113.919 8.48699C113.875 8.47266 113.787 8.47266 113.729 8.47266H112.195V9.8492Z" fill="url(#paint0_linear_42_2473)"/>
<path d="M113.554 0.341797C112.093 0.341797 110.895 1.50325 110.895 2.95149V5.66155H114.649C114.737 5.66155 114.839 5.66155 114.912 5.67589C115.759 5.7189 116.387 6.14907 116.387 6.8947C116.387 7.48259 115.963 7.98446 115.175 8.08483V8.11351C116.036 8.17086 116.694 8.64405 116.694 9.37534C116.694 10.164 115.963 10.6802 114.999 10.6802H110.881V15.9856H114.78C116.241 15.9856 117.439 14.8241 117.439 13.3759V0.341797H113.554Z" fill="url(#paint1_linear_42_2473)"/>
<path d="M114.269 7.06646C114.269 6.72233 114.021 6.4929 113.729 6.44989C113.699 6.44989 113.626 6.43555 113.583 6.43555H112.195V7.69737H113.583C113.626 7.69737 113.714 7.69737 113.729 7.68304C114.021 7.64002 114.269 7.4106 114.269 7.06646Z" fill="url(#paint2_linear_42_2473)"/>
<path d="M98.8602 0.341797C97.3997 0.341797 96.2021 1.50325 96.2021 2.95149V9.38968C96.947 9.74815 97.721 9.97757 98.4951 9.97757C99.4152 9.97757 99.9118 9.43269 99.9118 8.68707V5.64721H102.19V8.67273C102.19 9.84852 101.445 10.8092 98.9186 10.8092C97.3851 10.8092 96.1875 10.4794 96.1875 10.4794V15.9713H100.087C101.548 15.9713 102.745 14.8098 102.745 13.3616V0.341797H98.8602Z" fill="url(#paint3_linear_42_2473)"/>
<path d="M106.207 0.341797C104.746 0.341797 103.549 1.50325 103.549 2.95149V6.36416C104.221 5.80494 105.389 5.44646 107.273 5.5325C108.281 5.57551 109.362 5.84795 109.362 5.84795V6.95205C108.821 6.67961 108.179 6.43585 107.346 6.37849C105.915 6.27812 105.053 6.96639 105.053 8.17086C105.053 9.38968 105.915 10.0779 107.346 9.96323C108.179 9.90588 108.821 9.64778 109.362 9.38968V10.4938C109.362 10.4938 108.295 10.7662 107.273 10.8092C105.389 10.8953 104.221 10.5368 103.549 9.97757V15.9999H107.448C108.909 15.9999 110.106 14.8385 110.106 13.3902V0.341797H106.207Z" fill="url(#paint4_linear_42_2473)"/>
<defs>
<linearGradient id="paint0_linear_42_2473" x1="110.893" y1="9.16264" x2="117.456" y2="9.16264" gradientUnits="userSpaceOnUse">
<stop stop-color="#007940"/>
<stop offset="0.2285" stop-color="#00873F"/>
<stop offset="0.7433" stop-color="#40A737"/>
<stop offset="1" stop-color="#5CB531"/>
</linearGradient>
<linearGradient id="paint1_linear_42_2473" x1="110.893" y1="8.15743" x2="117.456" y2="8.15743" gradientUnits="userSpaceOnUse">
<stop stop-color="#007940"/>
<stop offset="0.2285" stop-color="#00873F"/>
<stop offset="0.7433" stop-color="#40A737"/>
<stop offset="1" stop-color="#5CB531"/>
</linearGradient>
<linearGradient id="paint2_linear_42_2473" x1="110.893" y1="7.06467" x2="117.456" y2="7.06467" gradientUnits="userSpaceOnUse">
<stop stop-color="#007940"/>
<stop offset="0.2285" stop-color="#00873F"/>
<stop offset="0.7433" stop-color="#40A737"/>
<stop offset="1" stop-color="#5CB531"/>
</linearGradient>
<linearGradient id="paint3_linear_42_2473" x1="96.199" y1="8.15743" x2="102.864" y2="8.15743" gradientUnits="userSpaceOnUse">
<stop stop-color="#1F286F"/>
<stop offset="0.4751" stop-color="#004E94"/>
<stop offset="0.8261" stop-color="#0066B1"/>
<stop offset="1" stop-color="#006FBC"/>
</linearGradient>
<linearGradient id="paint4_linear_42_2473" x1="103.511" y1="8.15743" x2="109.984" y2="8.15743" gradientUnits="userSpaceOnUse">
<stop stop-color="#6C2C2F"/>
<stop offset="0.1735" stop-color="#882730"/>
<stop offset="0.5731" stop-color="#BE1833"/>
<stop offset="0.8585" stop-color="#DC0436"/>
<stop offset="1" stop-color="#E60039"/>
</linearGradient>
</defs>
</svg>
