<svg width="375" height="160" viewBox="0 0 375 160" fill="none" xmlns="http://www.w3.org/2000/svg">
<rect width="375" height="160" fill="#E0F2FE"/>
<mask id="mask0_1_9551" style="mask-type:alpha" maskUnits="userSpaceOnUse" x="0" y="0" width="375" height="160">
<path d="M0 0H375V160H0V0Z" fill="url(#paint0_linear_1_9551)"/>
</mask>
<g mask="url(#mask0_1_9551)">
<path d="M298.784 79.1074L250.881 25.8828L220.381 130.232L334.991 126.978L298.784 79.1074Z" fill="#EAECF0"/>
<path d="M-19.8789 15.3846L21.1001 35.2257L72.1835 -80.1467L28.7719 -105.762L-19.8789 15.3846Z" fill="#EAECF0"/>
<path d="M125.419 239.938C128.787 208.969 132.623 175.585 135.898 146.086L119.151 146.506L111.666 235.633L125.419 239.938Z" fill="#EAECF0"/>
<path d="M115.034 102.625L119.057 46.2508L109.514 29.6641L99.503 35.3329L-37 127.715V137.373L112.882 133.174L114.473 111.023L85.282 99.1605L87.7146 91.497L115.034 102.625Z" fill="#EAECF0"/>
<path d="M-22.8725 22.7342L-37 58.0073V98.0045L12.0251 70.0799L18.1064 42.5753L-22.8725 22.7342Z" fill="#EAECF0"/>
<path d="M304.118 73.5431L308.515 79.4219L330.408 25.5675C328.162 24.0977 325.823 22.4181 323.297 20.6334C311.696 12.0251 298.504 0.687317 292.142 -12.4351C288.306 -20.4136 280.354 -35.8455 271.559 -52.7472L251.818 -39.9397L248.356 -47.0784L268.097 -59.7809C266.226 -63.3502 264.355 -67.0244 262.484 -70.5938L207.564 -33.536L242.93 5.72633L266.413 -20.6235L271.559 -14.8497L248.169 11.3952L260.425 24.9376L277.453 6.98608L282.412 12.8649L265.571 30.6065L304.118 73.5431Z" fill="#EAECF0"/>
<path d="M145.534 61.6822L145.627 61.3672C145.627 61.3672 145.627 61.3673 145.721 61.0523C145.721 60.7374 145.814 60.2125 145.908 59.5826C146.001 58.3229 146.189 56.3282 146.189 54.0187C146.189 48.1398 145.253 39.8465 141.604 32.6029C140.107 29.5585 137.02 23.6796 133.09 16.1211L116.062 25.8842L126.541 44.0456L120.273 132.963L137.488 132.438C142.072 91.9163 145.534 61.8921 145.534 61.8921V61.6822Z" fill="#EAECF0"/>
<path d="M344.909 25.3605L360.908 -15.1616L355.388 -16.3164L339.764 22.2111C340.606 22.736 341.354 23.1559 342.103 23.5758C343.132 24.3107 344.067 24.8356 344.909 25.3605Z" fill="#EAECF0"/>
<path d="M376.999 -74.6883L351.27 -104.188L277.92 -56.8418C286.714 -39.94 294.573 -24.5081 298.503 -16.3197C304.584 -3.51215 321.051 9.71526 333.401 18.1136L348.464 -18.8392L321.893 -36.5807L325.635 -43.6143L351.551 -26.2927L366.988 -64.1903L373.538 -60.831L358.568 -23.9832L363.994 -22.8284L376.999 -55.792V-74.6883Z" fill="#EAECF0"/>
<path d="M342.009 32.8134C340.605 31.9736 338.828 30.9238 336.77 29.6641L313.754 86.353L318.432 92.5468L342.009 32.8134Z" fill="#EAECF0"/>
<path d="M246.952 262.297L255.372 216.001L236.567 213.586L227.024 249.489V249.594L220.1 247.285V247.075L231.14 204.663H231.327L240.964 168.55L240.403 143.355L239.841 143.25L234.976 143.355L232.544 167.185L223.375 202.039L216.451 199.729L225.433 165.506L227.678 143.46L173.414 144.93L165.742 248.229C185.203 251.904 209.715 256.313 233.105 259.882C237.596 260.617 242.274 261.457 246.952 262.297Z" fill="#EAECF0"/>
<path d="M166.118 145.246L150.493 145.666C149.651 153.434 148.716 161.623 147.78 169.916C145.067 193.852 142.26 219.257 139.641 243.192C144.599 244.242 151.055 245.502 158.633 246.971L166.118 145.246Z" fill="#EAECF0"/>
<path d="M93.7015 23.4688L125.512 1.94801C120.74 -7.08022 115.501 -16.9483 110.449 -26.5014C99.6893 -46.8674 89.5849 -65.7638 86.3103 -71.7476L78.6385 -76.2617L27.7422 38.3759L49.1673 48.7689L93.7015 23.4688Z" fill="#EAECF0"/>
<path d="M355.201 156.899L377.001 164.982V139.367L357.073 139.997L338.08 206.764L355.201 156.899Z" fill="#EAECF0"/>
<path d="M376.999 298.936V274.58L372.321 272.901L376.999 256.734V240.147L332.839 225.03L321.238 265.867L314.315 263.348L314.689 261.983L328.068 214.847H328.161L349.399 140.102L322.361 140.836L294.106 254.844L287.089 252.64L314.782 141.151L276.797 142.201L268.751 196.266L261.641 194.901L269.406 142.411L247.7 143.041L248.262 169.706L238.719 205.714L264.073 209.073L254.156 263.662C300.187 272.796 354.358 289.277 376.999 298.936Z" fill="#EAECF0"/>
<path d="M377.001 106.403L373.539 105.668L372.042 110.287L371.668 126.034L377.001 125.824V106.403Z" fill="#EAECF0"/>
<path d="M212.711 130.443L245.082 19.585L201.016 -29.2305L145.535 8.14223C149.465 15.5958 152.552 21.5796 154.143 24.729C159.475 35.4369 160.505 46.4597 160.505 54.0183C160.505 59.3722 159.943 63.0465 159.756 64.2013C159.663 65.1461 159.101 69.5552 158.353 76.5888L177.813 85.0922L174.351 131.388L212.711 130.443Z" fill="#EAECF0"/>
<path d="M377.001 6.67082L362.967 -0.257812L323.578 99.3677L344.348 126.767L364.37 126.137L364.838 108.711L372.323 85.8254L377.001 87.715V6.67082Z" fill="#EAECF0"/>
<path d="M20.6328 65.1448L40.8416 53.5971L24.843 45.9336L20.6328 65.1448Z" fill="#EAECF0"/>
<path d="M152.084 132.124L167.147 131.704L170.234 90.5522L157.51 84.9883C156.107 96.9559 154.236 113.333 152.084 132.124Z" fill="#EAECF0"/>
<path d="M-37 150.915V190.282L104.555 233.533L111.853 146.82L-37 150.915Z" fill="#EAECF0"/>
<path d="M57.1207 -211.895L-37 20.7401V31.6579L60.8631 -211.895H57.1207Z" fill="#EAECF0"/>
<path d="M377.001 164.982L355.201 156.898L338.08 206.764L335.18 216.737L357.26 224.82L377.001 231.644V164.982Z" fill="#CEEAB0"/>
<path d="M46.4549 -211.895L-37 -5.50482V20.7401L57.1207 -211.895H46.4549Z" fill="white"/>
<path d="M320.022 -207.275L322.268 -211.895H298.972L301.03 -209.585L354.733 -148.802L354.639 -148.697L338.734 -137.989L274.272 -211.895H257.338L278.108 -188.169L282.224 -183.445L192.688 -80.9851L197.834 -75.3162L236.755 -119.618C240.403 -112.689 247.888 -98.4117 256.308 -82.3498L198.582 -43.4025L117.279 -132.11L134.214 -169.168L171.169 -211.895H161.065L128.226 -173.997L111.759 -137.779C107.83 -142.398 102.123 -150.796 102.31 -160.035C102.31 -163.499 102.965 -167.068 104.836 -171.058C115.689 -194.048 115.782 -194.993 117.56 -198.877C118.589 -201.292 118.87 -204.021 118.87 -207.38C118.87 -208.85 118.776 -210.32 118.589 -211.79H111.292C111.572 -210.32 111.666 -208.745 111.666 -207.38C111.666 -204.966 111.198 -202.656 111.104 -202.446C109.233 -198.247 109.327 -197.827 98.4739 -174.732C96.0414 -169.693 95.1058 -164.654 95.1058 -159.93C95.2929 -145.338 103.9 -134.735 108.391 -130.116L89.3051 -88.2287L34.76 -120.562L71.5288 -211.895H60.9566L-37 31.6579V58.0078L-22.8725 22.7346L18.1064 42.5758L12.0251 69.9754L-37 98.0049V127.609L99.5031 35.2272L109.42 29.5583L118.963 46.1451L115.034 102.519L87.7146 91.4962L85.282 99.1597L114.473 111.022L112.882 133.173L-37 137.372V150.915L111.853 146.715L104.555 233.428L-37 190.282V198.68L124.483 248.021C124.109 251.695 123.641 255.369 123.267 258.939C122.799 262.928 122.425 266.917 121.957 270.801C119.712 291.902 117.747 310.588 116.437 324.026C113.256 356.674 106.146 387.433 99.8773 409.794C96.6963 421.027 93.7024 430.16 91.5505 436.564C89.3986 442.863 88.0888 446.327 88.0888 446.327C88.0888 446.327 83.6915 457.455 76.4875 475.616L76.6746 473.936L-37 458.19V466.378L15.1125 473.622L12.9607 542.278L-37 529.471V537.764L44.0224 558.655C37.5668 575.137 30.8305 592.563 24.0007 610.095L-13.2359 588.994L-16.5105 596.238L21.0068 617.548C17.4515 626.682 13.8963 635.92 10.341 645.053L-37 621.958V630.776L-20.8142 638.649L-30.9186 666.889L-24.1824 669.933L-14.078 642.009L7.53424 652.612C3.41763 663.32 -0.698982 673.922 -4.62848 684.21H11.1831C11.5573 683.371 11.838 682.426 12.2122 681.586L16.2353 684.21H30.3627L15.019 674.027C25.4976 646.838 36.6312 618.178 47.2034 590.884C52.3492 577.656 57.4014 564.849 62.1729 552.566L114.566 566.004L104.836 671.508L48.4197 638.754L46.1742 643.583L104.368 677.387L104.181 684.21H109.046L109.14 680.221L116.063 684.21H126.542L109.327 674.237L113.818 625.947L192.595 668.883L187.823 684.105H192.969L196.992 671.193L220.569 684.105H231.609L198.582 666.049L217.668 605.056L276.985 629.411L255.279 684H260.612L268.939 663.11L272.494 665.104L305.801 683.896H316.654L274.553 660.38L270.904 658.281L281.663 631.301L343.693 653.346L331.624 684.105H339.576L350.616 655.761L364.837 660.8C363.34 667.939 361.188 675.812 358.569 684H366.241C368.486 676.757 370.357 669.723 371.761 663.215L377 665.104V659.435L352.581 650.722L361.563 627.731L377 633.82V628.046L363.527 622.692L374.567 594.348L377 595.398V563.379L371.199 581.436L344.348 570.413L377 459.974V434.044L337.612 567.683L327.975 563.694L350.991 489.788L344.161 487.164L321.239 560.965L312.257 557.29L317.683 386.804L377.094 411.999V406.225L317.871 381.135V380.82L323.765 318.987L323.858 317.622L319.087 317.097L318.993 317.622L313.099 379.14L253.408 353.84L261.361 308.384L256.589 307.334L247.14 361.503L201.576 344.917L200.734 344.812L207.471 299.251L202.699 298.411L195.869 344.077L179.122 341.347L179.216 340.718L184.829 291.902L180.058 291.167L174.444 339.878L174.351 340.613L150.961 336.938L158.258 289.278L153.487 288.333L134.962 408.639L131.781 487.164L130.565 492.728L90.9892 479.29C97.4447 462.914 101.374 452.941 101.374 452.941C101.561 452.521 124.296 394.152 130.939 325.915C132.249 312.793 134.12 294.632 136.365 273.951C136.74 270.066 137.207 266.182 137.675 262.193C138.049 258.624 138.424 255.054 138.892 251.38C157.51 255.159 196.337 262.718 232.264 268.072C281.289 275.42 351.458 296.521 375.69 307.124C376.158 307.334 376.626 307.544 377.094 307.754V299.041C354.452 289.383 300.281 272.901 254.25 263.768L264.261 209.073L238.906 205.714L248.449 169.706L247.888 143.041L269.594 142.411L261.828 194.901L268.939 196.266L276.985 142.201L314.97 141.151L287.277 252.745L294.294 254.949L322.548 140.942L349.587 140.207L328.349 214.952H328.256L314.877 262.088L314.502 263.453L321.426 265.972L333.027 225.135L377.187 240.252V231.749L357.446 225.03L335.273 217.472L335.46 216.947L338.266 206.974L357.259 140.102L377.187 139.577V126.034L371.854 126.139L372.322 110.497L373.819 105.878L377.187 106.613V98.3199L376.252 98.1099L377.187 95.3805V87.9269L372.509 86.0373L365.024 109.028L364.37 126.139L344.348 126.664L323.671 99.2647L363.06 -0.360855L377.094 6.56781V-2.35545L366.054 -7.81439L377.094 -35.8439V-55.895L364.089 -22.9314L358.662 -24.0862L373.632 -60.934L367.083 -64.2934L351.645 -26.3958L325.73 -43.7174L321.987 -36.6838L348.558 -18.9422L333.495 18.1156C321.145 9.71719 304.679 -3.6152 298.597 -16.3177C294.668 -24.4012 286.715 -39.9381 278.014 -56.8398L351.365 -104.186L377 -74.6863V-94.1075L347.435 -128.121L363.434 -138.934L376.906 -123.502V-142.818L374.1 -146.072L376.906 -147.962V-163.604L365.305 -155.94L320.022 -207.275ZM46.9227 550.991L19.042 543.853H20.0712L22.3166 474.566L74.0549 481.81C66.8508 500.181 57.4014 524.222 46.9227 550.991ZM214.768 598.127L192.127 588.784L190.443 593.823L213.084 603.166L194.092 663.634L147.312 638.124L156.387 616.919L151.99 614.609L142.915 635.815L114.192 620.173L119.057 568.103L134.307 576.292L132.623 585.95C132.155 586.894 131.22 589.204 131.22 592.248C131.126 596.658 133.278 602.641 140.108 607.68C146.657 612.614 157.323 617.234 175.286 620.593L167.988 649.252L172.666 650.722L180.713 619.228L195.963 577.446L200.734 564.324L200.547 564.219L222.534 572.932L218.417 586.055L214.768 598.127ZM136.178 592.248C136.178 590.989 136.459 590.044 136.646 589.309C136.74 588.994 136.833 588.679 136.927 588.574C137.02 588.469 137.02 588.469 137.02 588.469L137.301 588.049L140.576 569.888C142.166 566.738 143.944 564.114 145.721 562.014C151.803 554.666 158.82 552.671 165.369 552.566C170.327 552.566 175.005 553.826 178.374 555.191C181.742 556.45 183.8 557.815 183.8 557.71L183.987 557.815L196.337 562.644L181.835 602.326L176.97 615.554C159.007 612.195 148.622 607.575 142.915 603.271C137.114 598.757 136.178 594.873 136.178 592.248ZM279.043 624.582L219.353 600.017L223.095 587.944L227.212 574.822L279.418 595.398L289.616 599.387L279.043 624.582ZM182.771 506.165L191.191 457.77L227.586 478.031L211.306 517.713L210.371 519.917L182.022 510.259L182.771 506.165ZM178.186 504.276L177.438 508.685L153.861 500.601L155.545 495.037L170.327 446.012L186.794 455.145L178.186 504.276ZM269.407 493.673L279.511 461.969L309.45 478.241L309.824 477.296L308.702 513.829L269.407 493.673ZM308.515 519.813L307.485 552.986L251.537 533.88L238.158 529.366L238.345 528.631L248.449 488.844L308.515 519.813ZM265.009 491.363L249.853 483.49L259.49 450.946L275.114 459.449L265.009 491.363ZM245.456 481.285L233.574 475.091L239.094 439.818L255.186 448.636L245.456 481.285ZM228.989 472.677L192.22 452.206L198.208 418.087L200.266 418.717L234.603 437.404L228.989 472.677ZM215.891 519.498L231.983 480.235L243.959 486.429L233.667 526.636L233.386 527.686L214.955 521.387L215.891 519.498ZM236.287 537.239L295.603 557.5L305.801 560.965L291.674 594.558L281.569 590.569L228.708 569.678L236.287 537.239ZM345.658 648.307L283.721 626.262L294.294 601.172L354.733 625.002L345.658 648.307ZM367.738 591.619L356.604 620.068L296.258 596.238L308.421 567.158L367.738 591.619ZM252.473 359.194L312.818 384.704L310.012 472.467L281.289 456.825L299.814 410.949L295.416 408.744L276.985 454.515L261.267 445.907L280.54 399.191L276.143 396.882L256.87 443.492L239.842 434.254L244.426 404.86L252.473 359.194ZM199.892 350.061L200.547 350.166L246.298 366.752L241.433 394.362L194.185 388.588L199.892 350.061ZM150.212 342.292L173.415 345.966L165.743 385.859L170.421 387.013L178.186 346.701L195.121 349.431L188.572 393.417L240.497 399.821L239.748 404.125L235.351 432.05L201.857 413.783L141.885 395.832L150.212 342.292ZM139.827 409.269L141.137 401.081L193.53 416.723L187.729 449.686L149.838 428.585L137.582 466.273L139.827 409.269ZM136.646 487.899L137.02 479.815L138.143 480.235L152.551 436.144L165.93 443.597L150.961 493.148L149.183 498.922L137.207 494.827L135.149 494.093L136.646 487.899ZM133.372 502.176L134.962 502.701L231.609 535.664L224.124 567.893L185.858 552.776C184.361 551.936 175.847 547.107 165.369 547.107C158.445 547.002 150.68 549.312 143.944 556.24C141.137 559.18 138.424 562.854 136.178 567.578L135.991 567.893V567.998L120.554 559.705L123.08 548.367L126.729 532.305L133.372 502.176ZM128.787 500.601L115.876 557.92L65.1668 545.008C72.6515 525.901 79.4814 508.58 85.0949 494.198C86.1241 491.573 87.0597 489.159 87.9953 486.744L128.787 500.601ZM241.9 -125.811L287.277 -177.671L328.162 -130.85L262.483 -86.549C253.127 -104.396 244.988 -119.932 241.9 -125.811ZM201.015 -29.3352L245.081 19.4803L212.71 130.339L174.444 131.388L177.906 85.0924L158.445 76.5891C159.287 69.5555 159.755 65.1464 159.849 64.2015C160.036 63.0468 160.597 59.2675 160.597 54.0185C160.597 46.355 159.568 35.4372 154.235 24.7292C152.645 21.5799 149.557 15.5961 145.628 8.1425L201.015 -29.3352ZM170.234 90.5514L167.146 131.703L152.083 132.123C154.235 113.332 156.106 96.9551 157.51 84.9875L170.234 90.5514ZM113.818 -124.552L192.127 -39.0983L139.453 -3.51024C122.425 -35.8439 97.7254 -82.0349 97.7254 -82.0349L96.6963 -84.0295L95.6671 -84.6594L113.818 -124.552ZM-19.8786 15.3861L28.7722 -105.655L72.1837 -80.0403L21.1003 35.2272L-19.8786 15.3861ZM20.6325 65.1463L24.9363 45.8301L40.8414 53.5986L20.6325 65.1463ZM93.7024 23.4695L49.1681 48.8745L27.743 38.4816L78.6393 -76.261L86.3112 -71.7469C89.4922 -65.7631 99.5966 -46.8667 110.45 -26.5007C115.502 -16.9476 120.741 -7.07953 125.513 1.9487L93.7024 23.4695ZM125.419 239.937L111.666 235.738L119.151 146.61L135.898 146.191C132.529 175.585 128.787 208.968 125.419 239.937ZM137.395 132.543L120.18 133.068L126.448 44.1505L115.969 25.989L132.997 16.2259C136.927 23.6795 140.014 29.6633 141.511 32.7077C145.16 40.0563 146.096 48.2447 146.096 54.1235C146.096 56.4331 146.002 58.4277 145.815 59.6874C145.721 60.3173 145.721 60.8422 145.628 61.1571C145.628 61.4721 145.534 61.472 145.534 61.472L145.441 61.787V62.1019C145.534 61.9969 141.979 92.0211 137.395 132.543ZM139.64 243.192C142.26 219.256 145.066 193.851 147.78 169.916C148.715 161.623 149.651 153.539 150.493 145.666L166.117 145.246L158.539 246.971C151.054 245.501 144.599 244.241 139.64 243.192ZM231.422 204.664H231.235L220.195 247.076V247.286L227.118 249.595V249.49L236.661 213.587L255.466 216.002L247.046 262.298C242.275 261.458 237.597 260.618 233.199 259.988C209.903 256.524 185.297 252.01 165.837 248.336L173.508 145.036L227.773 143.566L225.527 165.612L216.546 199.835L223.469 202.145L232.638 167.291L235.07 143.461L239.936 143.356L240.497 143.461L241.058 168.656L231.422 204.664ZM334.992 126.979L220.382 130.234L250.788 25.989L298.784 79.2136L334.992 126.979ZM355.481 -16.4227L361.001 -15.2679L344.909 25.3591C344.067 24.8342 343.132 24.3093 342.009 23.6795C341.26 23.2595 340.512 22.7346 339.67 22.3147L355.481 -16.4227ZM336.77 29.5583C338.828 30.8181 340.605 31.9728 342.009 32.7077L318.432 92.336L313.754 86.1422L336.77 29.5583ZM292.235 -12.5385C298.597 0.478973 311.789 11.9217 323.391 20.5301C325.823 22.3147 328.256 23.9944 330.501 25.4641L308.608 79.3186L304.211 73.4397L265.384 30.6081L282.224 12.8666L277.266 6.98772L260.238 24.9392L247.982 11.3969L271.372 -14.848L266.226 -20.6219L242.742 5.72797L207.377 -33.5344L262.296 -70.5921C264.167 -67.0228 266.039 -63.3485 267.91 -59.7793L248.356 -47.0767L252.005 -40.0431L271.746 -52.8506C280.447 -35.9489 288.399 -20.5169 292.235 -12.5385ZM274.365 -63.8734C272.494 -67.5477 270.53 -71.222 268.658 -74.8963L336.863 -120.877L346.125 -110.169L274.365 -63.8734Z" fill="white"/>
</g>
<defs>
<linearGradient id="paint0_linear_1_9551" x1="187.5" y1="0" x2="188" y2="110.5" gradientUnits="userSpaceOnUse">
<stop stop-color="white"/>
<stop offset="1" stop-color="white" stop-opacity="0"/>
</linearGradient>
</defs>
</svg>
