<svg width="40" height="36" viewBox="0 0 40 36" fill="none" xmlns="http://www.w3.org/2000/svg">
<g filter="url(#filter0_b_42_2510)">
<rect width="40" height="36" rx="6" fill="#005E7B"/>
</g>
<path fill-rule="evenodd" clip-rule="evenodd" d="M6.51953 11.2795C6.51953 10.3075 7.30751 9.51953 8.27953 9.51953H23.7195C24.6916 9.51953 25.4795 10.3075 25.4795 11.2795V13.3595H18.7138C17.3845 13.3595 16.3595 14.4817 16.3595 15.7995V22.4795H8.27953C7.30751 22.4795 6.51953 21.6916 6.51953 20.7195V11.2795ZM9.64 11.8457C9.28654 11.8457 9 12.1322 9 12.4857V14.898C9 15.2515 9.28654 15.538 9.64 15.538H12.2784C12.6318 15.538 12.9184 15.2515 12.9184 14.898V12.4857C12.9184 12.1322 12.6318 11.8457 12.2784 11.8457H9.64ZM14.2622 19.6155C14.602 19.6155 14.8776 19.34 14.8776 19.0001C14.8776 18.6603 14.602 18.3848 14.2622 18.3848H9.61538C9.27552 18.3848 9 18.6603 9 19.0001C9 19.34 9.27552 19.6155 9.61538 19.6155H14.2622Z" fill="white"/>
<path fill-rule="evenodd" clip-rule="evenodd" d="M17.3594 15.9994C17.3594 15.0936 18.0936 14.3594 18.9994 14.3594H31.9994C32.9051 14.3594 33.6394 15.0936 33.6394 15.9994V24.9994C33.6394 25.9051 32.9051 26.6394 31.9994 26.6394H18.9994C18.0936 26.6394 17.3594 25.9051 17.3594 24.9994V15.9994ZM18.9994 15.6394C18.8005 15.6394 18.6394 15.8006 18.6394 15.9994V17.7188H32.3594V15.9994C32.3594 15.8006 32.1982 15.6394 31.9994 15.6394H18.9994ZM18.6394 24.9994V20.2787H32.3594V24.9994C32.3594 25.1982 32.1982 25.3594 31.9994 25.3594H18.9994C18.8006 25.3594 18.6394 25.1982 18.6394 24.9994ZM25.6154 21.9219C25.2755 21.9219 25 22.1974 25 22.5373C25 22.8771 25.2755 23.1526 25.6154 23.1526H30.2622C30.602 23.1526 30.8776 22.8771 30.8776 22.5373C30.8776 22.1974 30.602 21.9219 30.2622 21.9219H25.6154Z" fill="white"/>
<defs>
<filter id="filter0_b_42_2510" x="-4" y="-4" width="48" height="44" filterUnits="userSpaceOnUse" color-interpolation-filters="sRGB">
<feFlood flood-opacity="0" result="BackgroundImageFix"/>
<feGaussianBlur in="BackgroundImageFix" stdDeviation="2"/>
<feComposite in2="SourceAlpha" operator="in" result="effect1_backgroundBlur_42_2510"/>
<feBlend mode="normal" in="SourceGraphic" in2="effect1_backgroundBlur_42_2510" result="shape"/>
</filter>
</defs>
</svg>
